<svg xmlns="http://www.w3.org/2000/svg" viewBox="0 0 450 450"><defs><style>.cls-1{isolation:isolate;}.cls-2{fill:#3f90a8;}.cls-3{fill:#f4f1e5;}.cls-4,.cls-5{fill:#f8dcc2;}.cls-10,.cls-13,.cls-14,.cls-15,.cls-16,.cls-17,.cls-18,.cls-19,.cls-21,.cls-23,.cls-5,.cls-9{mix-blend-mode:multiply;}.cls-10,.cls-14,.cls-6{fill:#ec925d;}.cls-7{fill:#a64c49;}.cls-8,.cls-9{fill:#3b5765;}.cls-9{opacity:0.28;}.cls-10{opacity:0.4;}.cls-11,.cls-13,.cls-15,.cls-17,.cls-18,.cls-19{fill:#f8c650;}.cls-12,.cls-16{fill:#fcc7a9;}.cls-14{opacity:0.43;}.cls-15{opacity:0.51;}.cls-16{opacity:0.39;}.cls-17{opacity:0.55;}.cls-18{opacity:0.69;}.cls-19{opacity:0.14;}.cls-20,.cls-21,.cls-22,.cls-23{fill:#abe3ef;}.cls-22{opacity:0.54;mix-blend-mode:screen;}.cls-23{opacity:0.45;}</style></defs><g class="cls-1"><g id="Layer_1" data-name="Layer 1"><path class="cls-2" d="M77.24,344.18s-18.76,15-1.21,33.73L160.63,353Z"/><polygon class="cls-2" points="365.31 351.06 215.92 396.73 76.02 377.91 85.22 374.98 226.82 329.58 226.92 329.58 293.48 343.5 358.47 350.34 365.31 351.06"/><path class="cls-3" d="M363.77,324.12l-7.66,3.8,7.61-2.72-.06,2.21-28.79,12.28,28.74-11.2-.41,11.26-11.05,4.83,11-2.93-.26,7.15-4.42,1.54-142.09,43.1-.36-.05L85.23,375l-6.84-1c-3.6-8.85-2.93-18.15,1-27.82l147.4-16.61h.1l130-7.83,6.94-.77Z"/><polygon class="cls-4" points="79.39 346.17 232.56 312.13 363.88 321 219.29 364.97 79.39 346.17"/><polygon class="cls-5" points="79.39 346.17 232.56 312.13 363.88 321 217.25 364.69 79.39 346.17"/><path class="cls-2" d="M77.24,344.18,220,313.85a58.16,58.16,0,0,1,21.56-3.3l124.9,7.95L217.14,363Z"/><polygon class="cls-5" points="365.31 351.06 215.92 396.73 216.03 393.39 217.16 363 293.48 343.5 356.93 321.75 363.87 320.98 363.77 324.12 356.11 327.92 363.72 325.2 363.66 327.41 334.87 339.69 363.61 328.49 363.2 339.75 352.15 344.58 363.15 341.65 362.89 348.8 358.47 350.34 365.31 351.06"/><path class="cls-6" d="M70.34,304.66s-18.76,15-1.21,33.73l84.6-24.92Z"/><polygon class="cls-6" points="358.41 311.54 209.02 357.21 69.12 338.39 78.33 335.46 219.92 290.06 220.03 290.06 286.58 303.98 351.57 310.82 358.41 311.54"/><path class="cls-3" d="M356.87,284.59l-7.66,3.81,7.61-2.73-.05,2.22L328,300.17,356.71,289l-.41,11.26-11.05,4.83,11-2.93-.26,7.14-4.42,1.55-142.08,43.1-.36-.05L78.33,335.46l-6.84-1c-3.6-8.84-2.93-18.14,1-27.81l147.4-16.61H220l130-7.83,6.94-.77Z"/><polygon class="cls-4" points="72.49 306.64 225.67 272.61 356.99 281.48 212.39 325.45 72.49 306.64"/><polygon class="cls-5" points="72.49 306.64 225.67 272.61 356.99 281.48 210.35 325.17 72.49 306.64"/><path class="cls-6" d="M70.34,304.66l142.71-30.33a58.16,58.16,0,0,1,21.56-3.3L359.51,279,210.24,323.46Z"/><polygon class="cls-5" points="358.41 311.54 209.02 357.21 209.13 353.87 210.26 323.48 286.58 303.98 350.03 282.23 356.97 281.46 356.87 284.6 349.21 288.4 356.82 285.68 356.77 287.89 327.97 300.17 356.71 288.97 356.3 300.23 345.25 305.06 356.25 302.13 355.99 309.27 351.57 310.82 358.41 311.54"/><path class="cls-7" d="M91.77,272S73,287,90.56,305.75l84.6-24.92Z"/><polygon class="cls-7" points="379.84 278.9 230.45 324.57 90.55 305.75 99.76 302.82 241.35 257.42 241.46 257.42 308.01 271.34 373 278.18 379.84 278.9"/><path class="cls-3" d="M378.3,252l-7.66,3.81,7.61-2.73-.05,2.22-28.8,12.28,28.74-11.2-.41,11.26-11.05,4.83,11-2.93-.26,7.14L373,278.18l-142.08,43.1-.36,0L99.76,302.82l-6.84-1C89.32,293,90,283.7,94,274l147.4-16.61h.1l130-7.83,6.94-.77Z"/><polygon class="cls-4" points="93.92 274 247.09 239.97 378.41 248.84 233.82 292.81 93.92 274"/><polygon class="cls-5" points="93.92 274 247.09 239.97 378.41 248.84 231.78 292.53 93.92 274"/><path class="cls-7" d="M91.77,272l142.71-30.33a58.16,58.16,0,0,1,21.56-3.3l124.9,7.94L231.67,290.82Z"/><polygon class="cls-5" points="379.84 278.9 230.45 324.57 230.56 321.23 231.69 290.84 308.01 271.34 371.46 249.59 378.4 248.82 378.3 251.96 370.64 255.76 378.25 253.03 378.19 255.25 349.4 267.53 378.14 256.32 377.73 267.58 366.68 272.42 377.68 269.49 377.42 276.63 373 278.18 379.84 278.9"/><path class="cls-2" d="M382.77,264.72l-11.15-2.48L293,244.63l5.73-.87,8.45-1.34,10.33-1.65,53-8.34,7-1.07S397.92,244,382.77,264.72Z"/><polygon class="cls-2" points="382.77 264.72 244.57 286.43 90 257.85 157.76 243.13 163.42 241.75 194.5 228.75 225.66 221.1 258.36 230.78 303.11 241.18 306.8 242.28 307.21 242.42 307.74 242.56 373.46 261.96 382.77 264.72"/><path class="cls-4" d="M101.4,249.63l-11.55-3.48L88.1,235,118,242.7,87.93,234l-.34-2.21,7.89,1.84-8.06-2.9,290.11.68c5.49,20.64,5,20.55,2.42,29.72L244,282.54,91.26,255.11,90.14,248Z"/><polygon class="cls-4" points="375.63 233.6 219.99 211.64 86.94 227.62 237.43 255.32 375.63 233.6"/><polygon class="cls-5" points="377.83 232.49 377.53 231.37 219.99 211.64 86.94 227.62 239.63 255.02 377.83 232.49"/><path class="cls-2" d="M377.53,231.37,232.72,211.84a58.36,58.36,0,0,0-21.8-.7L84.35,225.71l155,27.38Z"/><path class="cls-5" d="M382.77,264.72l-138.2,21.71-.61-3.89L239.63,255l-.33-2,63.81-11.89,67-8.83,7.43-1S397.92,244,382.77,264.72Z"/><path class="cls-8" d="M351.68,313.32c-3,2.11-4.74,4-12.37,1.86-4.17-1.14-8.85-4.06-11.63-5.76a16.85,16.85,0,0,0-5.06-2.06c-.53-.13-1-.24-1.48-.38a.83.83,0,0,1-.2-.09c-6.19-1.69-6.47-3.76-6.7-4.55s1-16.29,1-16.29l17.11,3.72A38.58,38.58,0,0,0,338,297a135.94,135.94,0,0,0,12.88,10.65C353.74,309.79,353.32,312.18,351.68,313.32Z"/><path class="cls-9" d="M334.14,292.41s2.06,3.68-12.76,4.74c-9.19.66-2.29,8.78-.44,9.74-6.19-1.69-6.47-3.76-6.7-4.55s1-16.29,1-16.29l17.11,3.72A18.12,18.12,0,0,0,334.14,292.41Z"/><path class="cls-6" d="M336.41,230.11c-.28,6.78-4.61,8.85-7.6,14a50.2,50.2,0,0,0-9-1.27c-3.55-.3-7.77-.46-12.31-.59-23.27-.75-55.72-.39-60.52-6.22-1.3-1.56-7-24.12-7.93-25.75a22.89,22.89,0,0,1-3-10.34c-.15-6,2.66-11,8.39-13,3.25-1.18,7.48-1.33,12.58-.06,2,.78,6.06-1.81,8.2-1.15,1.85.57,3.68,1.17,5.52,1.8,4.47,1.48,8.88,3.08,13.2,4.74a383.46,383.46,0,0,1,44.58,20.55C335.08,217.19,336.67,223.5,336.41,230.11Z"/><path class="cls-6" d="M336.3,225.39c.87,22.36-3.39,58.84-2.37,65.57-2.4,4.05-19.13,5.08-19.61,1.81-.34-2.67-.33-2.76-.37-3.15-1.79-11.57-8.41-48.2-9.37-52a.7.7,0,0,1,.12-.38c.78-1.54,6.1-5.89,11.89-10.3C324.19,221.21,336.23,223.64,336.3,225.39Z"/><path class="cls-10" d="M320.65,249.15c-3.7,12.4-6.89,37.89-6,46.29-1.79-11.57-7.71-48.36-8.67-52.13,0-.09,1.46-.86,1.55-1-23.27-.75-55.72-.39-60.52-6.22-1.3-1.56-7-24.12-7.93-25.75a22.89,22.89,0,0,1-3-10.34l34.69-12.44c4.47,1.48,8.88,3.08,13.2,4.74,0,0,1.77.33-1.21,5.38-1.21,2,2.35,7.19,4.36,8.44,11,6.86,23,14.24,29.5,20.85C321.44,231.88,322.85,241.79,320.65,249.15Z"/><path class="cls-11" d="M288.92,124.7c-.29,1.71-6.22,26.6-8.67,36.9v.05c-.62,2.62-1,4.28-1,4.35-5.31-.68-15.36-3.27-19.58-8.53a7.89,7.89,0,0,1-1.76-6.53c.77-4.31,4.24-14.26,5.34-18.32A48.28,48.28,0,0,1,269,118.73c2.59-4,5.63-6.61,9-7.54,8-2.17,10,2.25,11.48,6.24C290.28,119.56,289.11,123.74,288.92,124.7Z"/><path class="cls-12" d="M304.05,188.79s4,4.2,6.11,5,6.11-.58,10.3,0,5.37,6.29,6.11,7.63.93,5.5-3.35,5.71-9.11-6.31-9.22-4c1.62,2.85,3,4.53.93,4.58s-5.22-5.91-8.24-6.84-5.31-2-6.07-3.88S304.05,188.79,304.05,188.79Z"/><path class="cls-11" d="M297.14,198l-2.91-1.66s-.05,0-.08,0c-7.9-4.48-28.76-16.39-31.06-17.71-2.8-1.61-7.15-7.26-8.51-9.27.32-5.16,2.27-9.27,5.07-11.88,5.36-5,13.87-4.58,20.6,4.18,0,.07,26,27.22,26.95,27.95S301,199.74,297.14,198Z"/><path class="cls-11" d="M257.32,102.7l-2.48-3.51a7.5,7.5,0,0,1,7.37-1Z"/><path class="cls-13" d="M254.84,99.19a7.5,7.5,0,0,1,7.37-1c4.07,1.72-4.89,4.55-4.89,4.55Z"/><path class="cls-8" d="M295.64,79c-7.41,6.33-8.37,17-22.61,17s-11.73,3.53-15.89-5.28c-4-8.58-4.29-13.19-4.93-21.57-.32-4.14,4.37-10.35,13.63-13,10.69-6.57,19.74,0,25.24,1.25,8,1.8,8.74,6.75,7.74,9.68C298.9,74.61,298.15,75.12,295.64,79Z"/><path class="cls-6" d="M307.27,223.82c.08.76-3.53,9.33-6.84,16.84-.19.43-.38.87-.59,1.31-2.4,5.47-4.51,10.06-4.66,10.07-4.6-.92-9.14-1.86-13.6-2.89-1.48-.3-2.94-.61-4.43-1-17.6-4-34.35-8.85-51-16.13C212.31,226,207,211.4,208.54,202.15c.17-1.09.35-2.11.51-3.08,2.54-15.13,2.69-14.82,22.55-13.85,3.6.15,12.94,4.3,16.46,5.41,9,2.91,6-1.89,13.48,2.84l1.34.86c3.66,2.27,7,4.4,10.1,6.36,14,8.85,22.68,14.61,29.67,19.7a10.37,10.37,0,0,1,.93.66c1.16.84,2.29,1.69,3.39,2.51A1.33,1.33,0,0,1,307.27,223.82Z"/><path class="cls-8" d="M272.66,329.26c-2.3.79-13.9-1.59-18.51-6.8a34.45,34.45,0,0,1-2.29-4.06v-.06c-1.81-3.43-4.21-7.92-5.91-9.09-2.72-1.85-5-8.38-4.1-10.32s15-12.91,15-12.91l9.44,10.57s-1.44,3.42-.76,9.46a36.11,36.11,0,0,0,2.08,8.4C272.73,321.74,280.8,326.47,272.66,329.26Z"/><path class="cls-9" d="M266.32,296.59s-1.44,3.42-.76,9.46c-1.68.52-4.73.45-9.78-2.58-8.85-5.33-9.15.12-8.85,1.77s3,7.67,4.92,13.1c-1.81-3.43-4.21-7.92-5.91-9.09-2.72-1.85-5-8.38-4.1-10.32s15-12.91,15-12.91Z"/><path class="cls-6" d="M316.63,246.92c-5.88,19.06-47.2,52-48.9,55a2.94,2.94,0,0,1-3.13,1.36h-.05c-5.93-.6-16.55-10.57-13.75-14.56,0,0,6.82-10.76,15.64-24.3,0,0,0-.09.07-.13,1.54-2.36,3.12-4.79,4.76-7.25,1.92-2.94,3.88-5.94,5.88-8.91.21-.29.41-.61.64-.93,1.86-2.85,3.76-5.69,5.63-8.45.53-1.89,10.63-21.25,11.13-23.35q4.54,2.51,8.1,4.94a10.37,10.37,0,0,1,.93.66c1.16.84,2.29,1.69,3.39,2.51a1.33,1.33,0,0,1,.3.26C318.14,232.61,319.51,240.26,316.63,246.92Z"/><path class="cls-14" d="M244.56,215.74c23.48-8,29.94-11.8,29.61-14.3-3.09-1.95-7.63-4.84-11.29-7.11l-16,0-37.28,4.23-.53.47c-.16,1-.34,2-.51,3.08-1.55,9.25,3.77,23.84,17.64,29.9,16.62,7.28,33.37,12.12,51,16.13-.38.46-26.35,40.59-26.35,40.59-2.8,4,7.82,14,13.75,14.56-2.92-1.95-10.53-10.78-6.78-14.45C271.92,275.05,279,265.43,279,265.43c7.21-6.4,1.49-16.71,13.18-21.27C286.17,245.62,226.32,221.94,244.56,215.74Z"/><path class="cls-15" d="M294.15,196.33c-7.9-4.48-28.76-16.39-31.06-17.71-2.8-1.61-7.15-7.26-8.51-9.27.32-5.16,2.27-9.27,5.07-11.88a7.89,7.89,0,0,1-1.76-6.53c.77-4.31,4.24-14.26,5.34-18.32A48.28,48.28,0,0,1,269,118.73l12.6,2.08s-.38,36.22-1.39,40.79a35.45,35.45,0,0,1,2.21,8.11C283,173.41,286,191.19,294.15,196.33Z"/><path class="cls-11" d="M288.84,118.53c0,.32,0,.64,0,.93v.22c0,20.06-15.55,52.44-16.11,58.63,0,0-2.09,9.16,3.57,12.8,0,0,4.67,4.1-11.95,12.53-.16-.09-.37-.19-.59-.29a12.37,12.37,0,0,1-3.39-2.32,3.58,3.58,0,0,1-.8-3.84,31.24,31.24,0,0,0-1.6,4.52c-.1.42-.18.81-.26,1.15a11.91,11.91,0,0,0-.24,3.52c-1.26,3.5-11.34,5-19.56,5.58l-.38,0a67.06,67.06,0,0,1-21.45-1.88c-6.38-1.64-13.58-4-13.18-6.46,2.37-13.94,9.26-25.31,11.69-54.68.16-2.2,10.22-28.06,17.29-36.4a11.82,11.82,0,0,1,2.16-2c.45-.29.8-.53,1.09-.75a46.93,46.93,0,0,1,6.19-3.89c.72-.39,1.55-.81,2.54-1.3,18-8.78,35.48-7,44,10a7.89,7.89,0,0,1,.7,2A9.9,9.9,0,0,1,288.84,118.53Z"/><path class="cls-12" d="M283.55,102.62l-7.08,6.5c0,1-.08,2.19-.15,3.43-.31,5.3-1.07,11.68-3.09,12.19-.46-6-1.73-10.23-3.73-13.43a19.57,19.57,0,0,0-4.53-5,66.19,66.19,0,0,0-9.37-5.93c.2-.38,9-12.24,9-12.24C267.08,84.62,285.35,99.26,283.55,102.62Z"/><path class="cls-16" d="M283.49,104.47l-7.07,6c0,.94-.46,14-3.24,14.32,1.18-.54,2-4.44,2.27-6.73s.19-4.24-3.23-4.25a8.83,8.83,0,0,1-2.77-1.33,18.83,18.83,0,0,0-4.54-4.63c-14.73-1.8-5.57-10.23-5.57-10.23Z"/><path class="cls-11" d="M270.06,112.18a6.47,6.47,0,0,0,.43,3.33s-6.21-.12-7.8-2.27,6.37-1.51,7.3-1.17A.11.11,0,0,1,270.06,112.18Z"/><path class="cls-15" d="M245.64,160.94c4.7-10.69.48-22.87,1.52-33.53,1.07-11-.09-16.45-2.19-19.17-1.76-1.93,4-5.84,5.92-4.94-3.73,1-2.37,4.07-1.43,4.84,3.81,2.87,5.85,13.76,5.85,13.76s11.32-7,14.27-7c-4.46-.79-17.67-13.55-17.67-13.55-4.46.83-15.84,7.41-15.53,7.35-.31.28-1.92,1.53-2.37,1.82a11.82,11.82,0,0,0-2.16,2c-7.07,8.34-17.13,34.2-17.29,36.4-2.43,29.37-9.32,40.74-11.69,54.68-.4,2.47,6.8,4.82,13.18,6.46A67.06,67.06,0,0,0,237.5,212c-8.19-1.64-42-6.24-20.57-22.28,2.72-2,28.93,11.6,40.91,12.06a.14.14,0,0,1,.1,0c.91-.39,4.06.81,5.79,1.64.22.1.43.2.59.29,6.06-4.28,4.7-9.7,4.73-11.95C269.1,187.68,240.75,172.07,245.64,160.94Z"/><path class="cls-13" d="M258.52,112.8c3.63.13,11.29-1,11.52-.69,0,0,0,0,0,.08a6.35,6.35,0,0,0,.44,3.32C266.49,112.29,259,114.76,258.52,112.8Z"/><path class="cls-11" d="M270,112.07c-.61-.22-2,.4-3.64,1.42a81.72,81.72,0,0,0-6.63,4.79c-2.48,2-4.42,3.62-4.42,3.62s.14-11.32-4.26-14.51,1.48-6.38,2.23-7a10.58,10.58,0,0,1,2-1.49h0s2.15-1.32,3.57-1.19-1,.23-1.7,2.71C257.71,105.76,268.31,111.17,270,112.07Z"/><path class="cls-17" d="M276.27,114.94c1.29-1.16,3.49,5.21,5.43,6.46.75-3.5,1.6-9.1,1.8-10.71C280.14,108.93,277,112.28,276.27,114.94Z"/><path class="cls-13" d="M276.26,115.14s.51-2.66,2.52-3.61c1.81-.86-1.53,0-2.24.17a.17.17,0,0,0-.13.16Z"/><path class="cls-11" d="M276.47,111.73s1.12-.55,2.57,3.78,2.61,5.3,2.61,5.3.29-7.68,1.25-8.7-1-4.74-1-4.74Z"/><path class="cls-12" d="M294.24,82.79a7.3,7.3,0,0,0-.64,3.54c.29,4.11-1.32,8.11-4,12.72-7.33,12.57-7.89,10.88-14.38,9.4a20.59,20.59,0,0,1-10.47-6c-3.89-4.16-7.33-10-10.2-18.38a12.32,12.32,0,0,1,.63-9.58c7.46-14.58,21.48-8.6,34-5.83C298.56,70.74,296.31,78.22,294.24,82.79Z"/><path class="cls-8" d="M295.64,79s-10.12-4.72-8.28-8.84c.6-1.35-2.19-2.06-3.66-2.12-8.75-.36-14.93,3.57-16.73,8.76a9.7,9.7,0,0,0-.54,3.31c.13,8.39-5.31,4.34-6.65,7.5-.73,1.72-1.94,2.1-2.17,4.12-3-4.5-4.43-13.49-5.64-19.74.12-6.19,2.7-10.77,10.08-14.3,12.34-5.9,22.92-1.12,28.37,4.43v0C302.84,65.07,305.38,73.31,295.64,79Z"/><path class="cls-8" d="M259.78,87.56c-.73,1.73-.16,5.52-.38,7.53-5.65-8.59-12.83-30,2.65-37.45Z"/><path class="cls-12" d="M262.77,86.15c-1.51,2.75.72,6.41-1.12,7.11s-4.31-1.37-5.53-4.6-2.21-5.86,1.12-7.11C261.48,80,264.44,83.12,262.77,86.15Z"/><path class="cls-11" d="M234,163.82l9.24-26.24c9.45-19.3,3.6-27.59,2.6-28.7-1.24-1.4-4.74-1.73-6.32-1.34-7.41,1.84-16.29,11.24-25.2,36.13-.14.39-6.86,21.15-7,21.79C207.17,165.76,225.14,162.29,234,163.82Z"/><path class="cls-18" d="M273.21,126.11c.18,12.12-1.78,24.53-7.25,35.45a71.37,71.37,0,0,0-4.59,17.52c-.9,6-1.49,12-1.79,18.11h-.07A114.54,114.54,0,0,1,260.76,179c.94-6,2.22-12,4.88-17.57a52.51,52.51,0,0,0,5.59-17.22,145.83,145.83,0,0,0,1.92-18.08Z"/><path class="cls-19" d="M259.73,117.87c.45-4.09-5.73-13.26-2.54-11.9,1.94,3.8,7.2,6.17,9.17,7.52a81.72,81.72,0,0,0-6.63,4.79A1.4,1.4,0,0,1,259.73,117.87Z"/><path class="cls-8" d="M298.2,197.54a3,3,0,0,0-1.89.05l-38.59,14.15c-.23-.19-.65-.53-.72-.41a3.16,3.16,0,0,0-.22,1.17h0v0h0a.57.57,0,0,0,.37.52L296,227.49a1.58,1.58,0,0,0,1.21,0l40.11-17.85Z"/><path class="cls-20" d="M297.41,226.54l40.78-17.64-39.82-12.28a3,3,0,0,0-1.89,0L257.33,211a.6.6,0,0,0,0,1.12l38.87,14.42A1.59,1.59,0,0,0,297.41,226.54Z"/><path class="cls-8" d="M354.74,167.13c-1-1.16-1.31-1-1.84-.87l-41,13.56a3,3,0,0,0-1.88,1.91l-14.1,44a.83.83,0,0,0,1.12,1l41.2-18.29a3,3,0,0,0,1.59-1.71l14-39.18A2,2,0,0,0,354.74,167.13Z"/><path class="cls-21" d="M297.41,226.54l40.78-17.64-39.82-12.28a3,3,0,0,0-1.89,0L257.33,211a.6.6,0,0,0,0,1.12l38.87,14.42A1.59,1.59,0,0,0,297.41,226.54Z"/><path class="cls-21" d="M298.77,225.1l36.9-16-25-6.8a2.64,2.64,0,0,0-1.71,0l-35.43,13a.54.54,0,0,0,0,1l24.13,8.75A1.49,1.49,0,0,0,298.77,225.1Z"/><path class="cls-21" d="M285.78,209.47l11.55-4.05a.23.23,0,0,0,0-.44l-7.77-2.67H289l-11.15,4.09v.32l7.57,2.74Z"/><path class="cls-20" d="M298,227.39l41.2-18.29a3,3,0,0,0,1.59-1.71l14.09-39.46a.83.83,0,0,0-1-1.06l-41,13.57a2.94,2.94,0,0,0-1.88,1.91l-14.1,44A.82.82,0,0,0,298,227.39Z"/><path class="cls-22" d="M329.84,196.87l0,0c2-2.34,2.64-5,1.49-6s-3.69.13-5.66,2.47a10.43,10.43,0,0,0-1.32,2c-2.66.05-4.77,1.05-4.85,2.42s2.32,2.87,5.38,3.05,5.6-.91,5.68-2.41A1.87,1.87,0,0,0,329.84,196.87Z"/><path class="cls-23" d="M353.84,166.87l-.86.29c0,.05,0,.1,0,.15s-6.19,13-12.07,24.11a48.39,48.39,0,0,1-21.74,21l-21,10.13-1.24,3.88a.82.82,0,0,0,1.12,1l41.2-18.29a3,3,0,0,0,1.59-1.71l14.09-39.46A.83.83,0,0,0,353.84,166.87Z"/><path class="cls-12" d="M254,185.64s12.44,8.37,14.6,8.94a73.2,73.2,0,0,0,9.67,1c2,.1,8,6.53,9,9.72s1,6.68.05,7.83-6.68.61-10.95-1.06-6-6.69-7.47-7.31-22-10.37-22-10.37Z"/><path class="cls-11" d="M233.78,166.42l.64-3.81c-7.9,3.92-20.53-7.25-26.92,2.35a12.81,12.81,0,0,0,0,5,18,18,0,0,0,4.62,8.41,22.69,22.69,0,0,0,5.46,3.48c9,7.47,23.92,14.64,43.6,21.59,3.36,1.4,8.84-10.51,7.87-11.72Z"/><path class="cls-12" d="M278.21,196.06c1.28.27,2.67.5,4,.64a18.3,18.3,0,0,0,1.91.12c.54.05,1.25-.16,1.05,0a1.82,1.82,0,1,1,2.19,2.9,6,6,0,0,1-3,1c-.82.08-1.58.09-2.35.09-1.52,0-3-.13-4.47-.3A2.22,2.22,0,0,1,278,196Z"/></g></g></svg>